<svg width="20" height="20" xmlns="http://www.w3.org/2000/svg"><g fill-rule="nonzero" fill="none"><path d="M11.612 19.833zM11.826 19.819c-.044.025-.089.048-.133.071.044-.023.089-.046.133-.071zM11.138 19.908zM11.33 19.899zM12.112 19.764zM12.809 19.594l-.134.08c.045-.026.09-.052.134-.08zM12.597 19.65l-.134.082.134-.083zM12.323 19.718c-.044.027-.088.051-.133.076.045-.025.09-.05.133-.076zM10.84 19.958z" fill="#000"/><path d="M20 9.98C20 4.47 15.522 0 10 0S0 4.47 0 9.98c0 5.512 4.478 9.981 10 9.981l.176-.002v-7.77H8.027V9.69h2.149V7.851c0-2.132 1.304-3.293 3.21-3.293.913 0 1.698.068 1.927.098v2.23h-1.315c-1.037 0-1.238.491-1.238 1.213V9.69h2.48l-.323 2.5H12.76v7.385C16.94 18.38 20 14.536 20 9.981z" fill="#FFF"/><path d="M10.66 19.967zM10.342 19.997z" fill="#000"/></g></svg>